<svg xmlns="http://www.w3.org/2000/svg" xmlns:xlink="http://www.w3.org/1999/xlink" width="2245" zoomAndPan="magnify" viewBox="0 0 1683.75 1190.250009" height="1587" preserveAspectRatio="xMidYMid meet" version="1.2"><defs><clipPath id="e797bf82cb"><path d="M 422 167 L 1302 167 L 1302 1092.363281 L 422 1092.363281 Z M 422 167 "/></clipPath></defs><g id="177537b35e"><g clip-rule="nonzero" clip-path="url(#e797bf82cb)"><path style=" stroke:none;fill-rule:nonzero;fill:#74ba9c;fill-opacity:1;" d="M 1279.632812 274.421875 C 1266.6875 225.800781 1205.949219 182.109375 1139.789062 176.21875 C 987.683594 162.714844 641.867188 165.429688 566.613281 177.484375 C 525.875 184.019531 444.277344 201.933594 432.964844 340.589844 C 424.398438 444.710938 414.96875 695.539062 432.9375 841.191406 C 443.96875 930.792969 498.636719 958.574219 532.285156 965.171875 C 574.597656 973.464844 618.167969 973.773438 660.941406 976.609375 C 664.640625 1038.058594 642.636719 1077.125 624.179688 1092.203125 C 692.3125 1082.644531 742.355469 1021.132812 754.898438 982.128906 C 845.34375 986.691406 1065.214844 986.011719 1163.179688 967.113281 C 1272.390625 946.054688 1285.546875 882.941406 1290.476562 836.289062 C 1300.957031 738.304688 1314.082031 403.398438 1279.632812 274.421875 Z M 1279.632812 274.421875 "/></g><path style=" stroke:none;fill-rule:nonzero;fill:#2d323f;fill-opacity:1;" d="M 1186.9375 553.582031 C 1186.101562 545.523438 1183.667969 537.980469 1179.632812 530.953125 C 1178.503906 529.175781 1177.21875 527.523438 1175.773438 525.992188 C 1174.328125 524.460938 1172.753906 523.082031 1171.046875 521.851562 C 1169.339844 520.621094 1167.53125 519.5625 1165.621094 518.675781 C 1163.710938 517.789062 1161.738281 517.09375 1159.695312 516.582031 C 1158.773438 516.277344 1157.664062 516.027344 1156.613281 515.75 C 1153.871094 487.445312 1150.203125 459.140625 1142.46875 431.730469 C 1136.308594 409.871094 1127.769531 387.023438 1110.207031 371.730469 C 1091.40625 355.480469 1066.753906 350.363281 1043.089844 346.046875 C 1013.574219 340.761719 983.867188 336.992188 953.96875 334.730469 C 926.050781 332.511719 898.039062 331.269531 869.933594 331 C 869.65625 322.613281 869.347656 314.195312 869.042969 305.8125 C 868.734375 297.425781 865.742188 285.523438 859.058594 286.941406 C 853.480469 290.578125 851.382812 309.234375 851.042969 331 C 823.308594 331.1875 795.578125 332.328125 767.84375 334.609375 C 741.960938 336.542969 716.28125 339.984375 690.800781 344.9375 C 665.933594 349.964844 640.757812 357.609375 621.097656 374.414062 C 606.769531 386.746094 597.308594 404.011719 590.867188 421.496094 C 581.375 447.179688 577.769531 474.992188 575.675781 502.152344 C 575.429688 505.453125 575.242188 508.753906 575.027344 512.082031 C 555.367188 516.800781 545.597656 526.265625 539.589844 539.121094 C 535.304688 548.96875 532.765625 559.246094 531.976562 569.957031 C 530.4375 597.921875 531.175781 629.523438 539.652344 655.484375 C 546 674.878906 560.636719 688.570312 584.085938 693.71875 C 585.648438 720.5 589.601562 746.925781 595.953125 772.988281 C 600.265625 789.175781 606.953125 803.515625 619.925781 814.644531 C 635.519531 827.996094 655.519531 834.191406 675.394531 838.355469 C 693.992188 842.144531 712.765625 844.46875 731.726562 845.324219 C 731.914062 848.039062 732.488281 850.671875 733.453125 853.214844 C 733.804688 854.011719 734.246094 854.75 734.777344 855.4375 C 735.3125 856.121094 735.917969 856.734375 736.601562 857.269531 C 737.28125 857.808594 738.019531 858.253906 738.8125 858.613281 C 739.601562 858.96875 740.425781 859.226562 741.277344 859.382812 C 747.6875 860.648438 769.289062 863.144531 782.757812 858.859375 C 784.621094 858.40625 786.292969 857.574219 787.78125 856.363281 C 789.261719 854.753906 790.289062 852.894531 790.863281 850.78125 C 791.980469 845.699219 792.398438 840.558594 792.125 835.363281 C 791.695312 830.984375 790.863281 827.65625 787.316406 825.4375 C 784.613281 824.027344 781.738281 823.347656 778.6875 823.402344 C 768.644531 822.785156 758.566406 822.476562 748.519531 822.445312 C 745.632812 822.253906 742.808594 822.589844 740.046875 823.464844 C 738.925781 824 737.894531 824.671875 736.949219 825.476562 C 736 826.28125 735.171875 827.191406 734.460938 828.210938 C 733.746094 829.226562 733.175781 830.320312 732.742188 831.484375 C 732.3125 832.648438 732.035156 833.851562 731.910156 835.085938 C 716.613281 834.394531 701.421875 832.726562 686.335938 830.09375 C 667.660156 826.761719 647.628906 822.167969 631.882812 811.007812 C 618.199219 801.292969 610.957031 788.191406 606.582031 772.402344 C 602.382812 756.316406 599.402344 740.007812 597.644531 723.472656 C 596.507812 714.222656 595.582031 704.972656 594.78125 695.539062 C 600.191406 696.089844 605.613281 696.273438 611.050781 696.09375 L 628.0625 509.429688 C 614.574219 508.472656 601.109375 508.699219 587.660156 510.109375 C 588.722656 486.761719 592.125 463.761719 597.863281 441.105469 C 602.515625 423.871094 609.789062 406.015625 620.972656 392.726562 C 636.105469 374.691406 658.878906 365.410156 681.28125 360.078125 C 704.308594 354.800781 727.585938 351.070312 751.109375 348.882812 C 784.265625 345.523438 817.671875 343.921875 851.074219 343.734375 C 851.074219 359.429688 852.0625 375.523438 852.957031 388.011719 L 871.96875 386.777344 C 871.476562 372.390625 870.972656 358.0625 870.457031 343.796875 C 889.5625 344.003906 908.648438 344.640625 927.714844 345.707031 C 957.265625 347.375 986.789062 350.054688 1016.0625 354.433594 C 1029.683594 356.4375 1043.242188 358.8125 1056.738281 361.679688 C 1068.058594 363.769531 1078.84375 367.429688 1089.097656 372.65625 C 1107.15625 382.429688 1117.878906 399.171875 1124.75 418.105469 C 1134.890625 445.851562 1139.542969 475.296875 1142.746094 504.589844 C 1143.085938 507.671875 1143.363281 511.035156 1143.671875 514.242188 C 1131.683594 513.039062 1119.714844 513.222656 1107.769531 514.796875 L 1091.777344 699.300781 C 1110.113281 698.683594 1128.28125 696.625 1146.292969 693.132812 C 1160.804688 690.050781 1171.804688 675.957031 1177.628906 661.160156 C 1183.023438 645.320312 1186.363281 629.0625 1187.644531 612.382812 C 1189.078125 592.761719 1188.84375 573.164062 1186.9375 553.582031 Z M 1186.9375 553.582031 "/><path style=" stroke:none;fill-rule:nonzero;fill:#e9f4ef;fill-opacity:1;" d="M 1107.648438 721.777344 C 1100.097656 753.78125 1084.445312 770.121094 1057.046875 779.25 C 973.015625 807.308594 765.714844 801.109375 691.171875 786.710938 C 662.207031 781.128906 631.171875 765.128906 621.898438 737.71875 C 602.886719 696.183594 601.035156 578.003906 604.609375 526.109375 C 609.171875 460.128906 617.953125 422.945312 660.632812 405.0625 C 687.78125 393.683594 742.511719 384.527344 769.257812 382.429688 C 847.863281 376.261719 926.351562 377.496094 1004.722656 386.128906 C 1036.894531 389.675781 1071.625 395.84375 1093.378906 419.800781 C 1114.398438 442.957031 1117.816406 476.746094 1118.835938 508.011719 C 1121.332031 584.015625 1119.140625 672.503906 1107.648438 721.777344 Z M 830.058594 299.367188 C 846.238281 299.921875 872.585938 300.015625 890.890625 299.644531 C 896.40625 299.660156 901.878906 299.195312 907.3125 298.257812 C 914.832031 296.4375 917.605469 289.007812 918.316406 281.175781 C 918.902344 275.253906 918.316406 265.140625 912.152344 262.675781 C 897.855469 258.113281 851.597656 256.664062 822.785156 262.675781 C 817.835938 263.640625 813.308594 265.582031 809.195312 268.503906 C 804.082031 272.234375 803.679688 280.558594 805.128906 286.726562 C 807.6875 297.363281 818.441406 298.875 830.058594 299.273438 Z M 830.058594 299.367188 "/><path style=" stroke:none;fill-rule:nonzero;fill:#2d323f;fill-opacity:1;" d="M 911.011719 645.925781 C 910.769531 647.371094 910.460938 648.804688 910.09375 650.222656 C 909.722656 651.636719 909.292969 653.039062 908.800781 654.417969 C 908.3125 655.796875 907.761719 657.152344 907.152344 658.484375 C 906.542969 659.816406 905.875 661.121094 905.152344 662.394531 C 904.429688 663.667969 903.652344 664.910156 902.820312 666.113281 C 901.988281 667.320312 901.105469 668.488281 900.175781 669.617188 C 899.242188 670.746094 898.261719 671.832031 897.234375 672.875 C 896.203125 673.917969 895.132812 674.914062 894.019531 675.867188 C 892.902344 676.816406 891.75 677.714844 890.554688 678.5625 C 889.363281 679.414062 888.136719 680.207031 886.871094 680.949219 C 885.609375 681.691406 884.316406 682.375 882.996094 683.003906 C 881.671875 683.632812 880.324219 684.203125 878.953125 684.714844 C 877.582031 685.226562 876.1875 685.675781 874.777344 686.066406 C 873.367188 686.457031 871.941406 686.78125 870.5 687.046875 C 869.058594 687.3125 867.609375 687.515625 866.152344 687.652344 C 864.695312 687.792969 863.234375 687.867188 861.769531 687.878906 C 860.304688 687.886719 858.84375 687.835938 857.386719 687.71875 C 855.925781 687.601562 854.472656 687.421875 853.03125 687.179688 C 851.585938 686.933594 850.15625 686.628906 848.738281 686.261719 C 847.320312 685.890625 845.921875 685.460938 844.542969 684.972656 C 843.164062 684.480469 841.808594 683.933594 840.476562 683.324219 C 839.144531 682.714844 837.84375 682.046875 836.566406 681.324219 C 835.292969 680.601562 834.054688 679.824219 832.847656 678.996094 C 831.644531 678.164062 830.476562 677.28125 829.347656 676.347656 C 828.21875 675.414062 827.132812 674.433594 826.089844 673.40625 C 825.046875 672.378906 824.050781 671.308594 823.097656 670.191406 C 822.148438 669.078125 821.25 667.921875 820.402344 666.730469 C 819.550781 665.535156 818.753906 664.308594 818.011719 663.046875 C 817.269531 661.78125 816.585938 660.488281 815.957031 659.167969 C 815.328125 657.84375 814.757812 656.496094 814.246094 655.125 C 813.734375 653.75 813.28125 652.359375 812.890625 650.945312 C 812.503906 649.535156 812.175781 648.109375 811.910156 646.667969 C 810.492188 639.113281 822.015625 635.90625 823.433594 643.585938 C 826.824219 661.527344 843.15625 676.207031 861.769531 676.019531 C 880.382812 675.835938 896.375 660.851562 899.457031 642.84375 C 900.75 635.136719 912.304688 638.375 911.011719 645.925781 Z M 756.441406 514.117188 C 750.3125 512.582031 744.148438 512.417969 737.949219 513.625 C 721.496094 518.679688 714.777344 534.867188 715.761719 552.074219 C 715.867188 554.742188 716.449219 557.304688 717.511719 559.757812 C 718.574219 562.210938 720.046875 564.386719 721.925781 566.285156 C 732.988281 577.878906 753.542969 581.148438 765.839844 570.941406 C 766.652344 570.253906 767.429688 569.53125 768.175781 568.769531 C 768.921875 568.011719 769.632812 567.222656 770.308594 566.398438 C 770.984375 565.574219 771.617188 564.722656 772.214844 563.839844 C 772.8125 562.960938 773.371094 562.054688 773.886719 561.121094 C 774.402344 560.191406 774.875 559.238281 775.304688 558.265625 C 775.734375 557.289062 776.121094 556.296875 776.460938 555.289062 C 776.800781 554.28125 777.09375 553.257812 777.339844 552.222656 C 777.589844 551.1875 777.789062 550.144531 777.941406 549.089844 C 778.09375 548.035156 778.199219 546.976562 778.257812 545.914062 C 778.316406 544.851562 778.324219 543.785156 778.285156 542.722656 C 778.246094 541.660156 778.160156 540.597656 778.023438 539.542969 C 777.890625 538.484375 777.707031 537.4375 777.476562 536.398438 C 777.25 535.359375 776.972656 534.332031 776.652344 533.316406 C 776.328125 532.300781 775.960938 531.304688 775.546875 530.324219 C 775.136719 529.339844 774.679688 528.378906 774.179688 527.441406 C 773.679688 526.5 773.140625 525.585938 772.558594 524.691406 C 770.597656 522.011719 768.234375 519.761719 765.457031 517.941406 C 762.683594 516.121094 759.675781 514.84375 756.441406 514.117188 Z M 1001.457031 524.878906 C 1000.476562 523.527344 999.378906 522.273438 998.171875 521.121094 C 996.960938 519.96875 995.65625 518.9375 994.257812 518.023438 C 992.859375 517.109375 991.390625 516.328125 989.851562 515.683594 C 988.3125 515.035156 986.726562 514.535156 985.09375 514.179688 C 978.96875 512.644531 972.804688 512.480469 966.605469 513.6875 C 950.148438 518.742188 943.429688 534.929688 944.417969 552.132812 C 944.519531 554.804688 945.101562 557.367188 946.164062 559.820312 C 947.230469 562.273438 948.699219 564.449219 950.578125 566.347656 C 961.644531 577.941406 982.195312 581.210938 994.523438 571.003906 C 995.335938 570.320312 996.113281 569.597656 996.859375 568.84375 C 997.605469 568.089844 998.316406 567.300781 998.992188 566.484375 C 999.667969 565.664062 1000.304688 564.816406 1000.90625 563.941406 C 1001.503906 563.0625 1002.0625 562.160156 1002.582031 561.234375 C 1003.097656 560.308594 1003.574219 559.359375 1004.007812 558.386719 C 1004.4375 557.417969 1004.828125 556.429688 1005.171875 555.425781 C 1005.515625 554.421875 1005.8125 553.402344 1006.0625 552.371094 C 1006.316406 551.339844 1006.519531 550.296875 1006.675781 549.25 C 1006.835938 548.199219 1006.945312 547.144531 1007.007812 546.082031 C 1007.070312 545.023438 1007.085938 543.960938 1007.054688 542.898438 C 1007.019531 541.839844 1006.941406 540.78125 1006.8125 539.726562 C 1006.683594 538.671875 1006.507812 537.625 1006.285156 536.585938 C 1006.0625 535.546875 1005.792969 534.523438 1005.480469 533.507812 C 1005.164062 532.492188 1004.804688 531.496094 1004.398438 530.515625 C 1003.996094 529.53125 1003.546875 528.570312 1003.054688 527.628906 C 1002.5625 526.6875 1002.03125 525.769531 1001.457031 524.878906 Z M 1001.457031 524.878906 "/><path style=" stroke:none;fill-rule:nonzero;fill:#f4ab9a;fill-opacity:1;" d="M 1043.121094 655.207031 C 1041.324219 656.875 1039.34375 658.28125 1037.183594 659.433594 C 1035.019531 660.582031 1032.746094 661.433594 1030.363281 661.992188 C 1023.691406 664.089844 1016.859375 665.027344 1009.871094 664.796875 C 1007.511719 664.867188 1005.210938 664.539062 1002.964844 663.808594 C 1000.722656 663.078125 998.667969 661.988281 996.804688 660.542969 C 995.914062 659.546875 995.398438 658.386719 995.261719 657.058594 C 995.210938 656.128906 995.222656 655.199219 995.300781 654.269531 C 995.378906 653.34375 995.519531 652.425781 995.726562 651.515625 C 995.9375 650.609375 996.207031 649.71875 996.539062 648.847656 C 996.871094 647.976562 997.265625 647.136719 997.714844 646.320312 C 998.167969 645.507812 998.675781 644.726562 999.238281 643.984375 C 999.796875 643.242188 1000.410156 642.542969 1001.070312 641.886719 C 1001.730469 641.230469 1002.433594 640.621094 1003.179688 640.066406 C 1003.925781 639.507812 1004.707031 639.003906 1005.523438 638.558594 C 1008.84375 636.804688 1012.332031 635.496094 1015.984375 634.636719 C 1019.640625 633.773438 1023.34375 633.386719 1027.09375 633.472656 C 1034.675781 633.195312 1043.921875 634.734375 1046.726562 641.796875 C 1047.085938 642.96875 1047.277344 644.171875 1047.300781 645.398438 C 1047.324219 646.628906 1047.175781 647.835938 1046.855469 649.023438 C 1046.535156 650.207031 1046.058594 651.328125 1045.425781 652.378906 C 1044.789062 653.429688 1044.019531 654.375 1043.121094 655.207031 Z M 717.398438 638.558594 C 714.097656 636.820312 710.636719 635.519531 707.007812 634.660156 C 703.382812 633.796875 699.707031 633.402344 695.980469 633.472656 C 688.367188 633.195312 679.125 634.734375 676.351562 641.796875 C 675.980469 642.960938 675.777344 644.15625 675.742188 645.378906 C 675.703125 646.601562 675.839844 647.808594 676.140625 648.992188 C 676.441406 650.179688 676.902344 651.300781 677.519531 652.355469 C 678.136719 653.410156 678.886719 654.363281 679.769531 655.207031 C 681.574219 656.871094 683.558594 658.277344 685.726562 659.425781 C 687.894531 660.578125 690.171875 661.433594 692.558594 661.992188 C 699.230469 664.09375 706.0625 665.03125 713.050781 664.796875 C 715.410156 664.867188 717.710938 664.539062 719.953125 663.808594 C 722.199219 663.078125 724.253906 661.988281 726.117188 660.542969 C 727.007812 659.550781 727.511719 658.386719 727.628906 657.058594 C 727.683594 656.128906 727.671875 655.199219 727.59375 654.273438 C 727.519531 653.34375 727.378906 652.425781 727.171875 651.519531 C 726.964844 650.609375 726.695312 649.722656 726.367188 648.851562 C 726.035156 647.980469 725.644531 647.140625 725.191406 646.324219 C 724.742188 645.511719 724.234375 644.730469 723.675781 643.988281 C 723.113281 643.246094 722.503906 642.542969 721.84375 641.886719 C 721.1875 641.230469 720.484375 640.625 719.738281 640.066406 C 718.992188 639.507812 718.210938 639.003906 717.394531 638.558594 Z M 717.398438 638.558594 "/></g></svg>